# File created by Blade
# Date/Time:  Wed Sep 24 19:42:34 2014
# Frame Rate: 120.000 fps
#------------------------------------------------------
:FULLY-SPECIFIED
:DEGREES
1363
root -4.874543 33.051124 -3.274285 7.363051 5.634532 -2.491867
Spine -14.277877 15.262436 -3.951368
Head 18.017106 -12.876643 17.344402
LeftShoulder -11.540475 19.750645 10.556566
LeftArm 24.111483 35.446655 -67.857975
LeftForeArm 0.643667 -0.000000 23.393006
LeftHand -24.076147 -0.000000 -8.192539
LeftHandThumb1 -26.253704 0.000000 33.147579
RightShoulder -24.043672 17.537168 -46.786321
RightArm 101.462027 43.022140 79.928606
RightForeArm 34.321139 -0.000000 106.604448
RightHand 1.058236 0.000000 22.505788
RightHandThumb1 -24.326973 -0.000000 -32.862282
LeftUpLeg -2.504474 1.965354 7.057178
LeftLeg -1.499261 -0.000000 0.000000
LeftFoot -8.030466 4.637944 -19.112315
LeftToeBase 10.275415 -0.000000 -0.000000
RightUpLeg -3.265731 -11.104518 1.305872
RightLeg 1.662191 -0.000000 -0.000000
RightFoot -5.826027 -4.063266 -14.735095
RightToeBase 0.192397 -0.000000 -0.000000
1364
root -4.878806 33.052272 -3.280142 7.393058 5.638342 -2.503565
Spine -14.239900 15.249851 -3.943031
Head 18.250753 -12.827709 17.305240
LeftShoulder -11.532818 19.736565 10.564269
LeftArm 24.127363 35.454357 -67.829994
LeftForeArm 0.622791 -0.000000 23.399469
LeftHand -24.054819 -0.000000 -8.224376
LeftHandThumb1 -26.253704 0.000000 33.147579
RightShoulder -24.108622 17.433313 -46.788338
RightArm 102.694798 42.990141 81.264806
RightForeArm 34.892047 0.000000 107.723022
RightHand 1.257650 -0.000000 22.260215
RightHandThumb1 -24.326973 -0.000000 -32.862282
LeftUpLeg -2.550828 1.985677 7.073993
LeftLeg -1.494149 -0.000000 0.000000
LeftFoot -8.015732 4.629152 -19.121091
LeftToeBase 10.242984 -0.000000 -0.000000
RightUpLeg -3.308510 -11.134330 1.333894
RightLeg 1.658686 -0.000000 -0.000000
RightFoot -5.816641 -4.035448 -14.750558
RightToeBase 0.224846 -0.000000 -0.000000
1365
root -4.878304 33.053929 -3.283101 7.421583 5.652869 -2.508045
Spine -14.215581 15.236258 -3.932828
Head 18.511471 -12.882140 17.177279
LeftShoulder -11.529957 19.743085 10.559679
LeftArm 24.165075 35.473175 -67.794059
LeftForeArm 0.603143 0.000000 23.389118
LeftHand -24.027778 -0.000000 -8.207838
LeftHandThumb1 -26.253704 0.000000 33.147579
RightShoulder -24.235685 17.415634 -46.892388
RightArm 103.669543 42.875749 82.443645
RightForeArm 35.718199 -0.000000 108.856025
RightHand 1.670953 -0.000000 22.054000
RightHandThumb1 -24.326973 -0.000000 -32.862282
LeftUpLeg -2.582780 1.990441 7.075172
LeftLeg -1.506084 -0.000000 0.000000
LeftFoot -7.986296 4.628019 -19.113093
LeftToeBase 10.254613 -0.000000 -0.000000
RightUpLeg -3.335681 -11.199506 1.347074
RightLeg 1.639165 -0.000000 -0.000000
RightFoot -5.789968 -3.979101 -14.746167
RightToeBase 0.186737 -0.000000 -0.000000
1366
root -4.881210 33.055414 -3.288372 7.446958 5.661234 -2.513994
Spine -14.171582 15.212533 -3.918684
Head 18.708367 -12.880355 17.160564
LeftShoulder -11.526173 19.682528 10.550682
LeftArm 24.137840 35.488772 -67.784142
LeftForeArm 0.599293 -0.000000 23.348053
LeftHand -23.926831 -0.000000 -8.193370
LeftHandThumb1 -26.253704 0.000000 33.147579
RightShoulder -24.373279 17.529852 -47.093386
RightArm 104.377661 42.740924 83.400246
RightForeArm 36.759065 -0.000000 110.051448
RightHand 2.213211 -0.000000 21.886607
RightHandThumb1 -24.326973 -0.000000 -32.862282
LeftUpLeg -2.620802 2.034427 7.080634
LeftLeg -1.507192 -0.000000 0.000000
LeftFoot -7.952819 4.594819 -19.078546
LeftToeBase 10.245089 -0.000000 -0.000000
RightUpLeg -3.371620 -11.231375 1.366797
RightLeg 1.638576 -0.000000 -0.000000
RightFoot -5.778262 -3.950963 -14.752415
RightToeBase 0.159466 -0.000000 -0.000000
1367
root -4.885061 33.057239 -3.292191 7.463373 5.677342 -2.523145
Spine -14.113858 15.189916 -3.913131
Head 18.942960 -12.903050 17.056222
LeftShoulder -11.528046 19.653069 10.533281
LeftArm 24.111866 35.419992 -67.790625
LeftForeArm 0.656660 0.000000 23.378343
LeftHand -23.976119 -0.000000 -8.210099
LeftHandThumb1 -26.253704 0.000000 33.147579
RightShoulder -24.460151 17.434284 -47.079462
RightArm 105.408557 42.679609 84.397139
RightForeArm 38.188810 -0.000000 111.199032
RightHand 2.759405 -0.000000 21.575390
RightHandThumb1 -24.326973 -0.000000 -32.862282
LeftUpLeg -2.639680 2.053328 7.096140
LeftLeg -1.528775 -0.000000 0.000000
LeftFoot -7.908421 4.566419 -19.094683
LeftToeBase 10.235646 -0.000000 -0.000000
RightUpLeg -3.387314 -11.258783 1.387947
RightLeg 1.618635 -0.000000 -0.000000
RightFoot -5.753228 -3.916783 -14.730606
RightToeBase 0.159671 -0.000000 -0.000000
1368
root -4.888253 33.059173 -3.296226 7.490805 5.690293 -2.535773
Spine -14.110729 15.163903 -3.916755
Head 19.149846 -12.953350 17.036771
LeftShoulder -11.491770 19.630754 10.544175
LeftArm 24.076854 35.387458 -67.803678
LeftForeArm 0.638073 0.000000 23.363315
LeftHand -23.977361 -0.000000 -8.186815
LeftHandThumb1 -26.253704 0.000000 33.147579
RightShoulder -24.525810 17.244601 -47.008377
RightArm 106.497209 42.555724 85.406865
RightForeArm 40.038918 -0.000000 112.384713
RightHand 3.286290 -0.000000 21.148245
RightHandThumb1 -24.326973 -0.000000 -32.862282
LeftUpLeg -2.672420 2.089116 7.113211
LeftLeg -1.543182 -0.000000 0.000000
LeftFoot -7.870967 4.531326 -19.114353
LeftToeBase 10.236319 -0.000000 -0.000000
RightUpLeg -3.417273 -11.278094 1.414604
RightLeg 1.603603 -0.000000 -0.000000
RightFoot -5.730407 -3.893350 -14.724898
RightToeBase 0.175973 -0.000000 -0.000000
1369
root -4.891315 33.060584 -3.300892 7.521637 5.706910 -2.555859
Spine -14.138442 15.134353 -3.900690
Head 19.311480 -12.973747 17.145080
LeftShoulder -11.410697 19.621715 10.559035
LeftArm 24.013802 35.339955 -67.843577
LeftForeArm 0.631165 0.000000 23.339849
LeftHand -24.007446 0.000000 -8.184017
LeftHandThumb1 -26.253704 0.000000 33.147579
RightShoulder -24.514229 16.894315 -46.850864
RightArm 107.669754 42.429509 86.343889
RightForeArm 42.014929 -0.000000 113.645068
RightHand 3.754725 0.000000 20.896838
RightHandThumb1 -24.326973 -0.000000 -32.862282
LeftUpLeg -2.709123 2.114501 7.136692
LeftLeg -1.562718 -0.000000 0.000000
LeftFoot -7.828757 4.500801 -19.107151
LeftToeBase 10.158479 -0.000000 -0.000000
RightUpLeg -3.451975 -11.284323 1.448652
RightLeg 1.586894 -0.000000 -0.000000
RightFoot -5.703448 -3.900028 -14.718170
RightToeBase 0.201243 -0.000000 -0.000000
1370
root -4.892909 33.062847 -3.303401 7.526130 5.728438 -2.559103
Spine -14.093503 15.087037 -3.896334
Head 19.506838 -13.072484 16.996302
LeftShoulder -11.420183 19.595524 10.519460
LeftArm 24.025572 35.318098 -67.791250
LeftForeArm 0.575711 -0.000000 23.316117
LeftHand -23.993681 -0.000000 -8.216531
LeftHandThumb1 -26.253704 0.000000 33.147579
RightShoulder -24.603772 16.915021 -46.959256
RightArm 108.159353 42.303101 86.879298
RightForeArm 44.046875 -0.000000 115.054821
RightHand 4.500714 -0.000000 20.170579
RightHandThumb1 -24.326973 -0.000000 -32.862282
LeftUpLeg -2.714675 2.145571 7.140881
LeftLeg -1.583256 -0.000000 0.000000
LeftFoot -7.778057 4.468134 -19.073408
LeftToeBase 10.181467 -0.000000 -0.000000
RightUpLeg -3.447540 -11.304893 1.456821
RightLeg 1.559516 -0.000000 -0.000000
RightFoot -5.662785 -3.877139 -14.696284
RightToeBase 0.147832 -0.000000 -0.000000
1371
root -4.894917 33.064985 -3.306812 7.539141 5.745718 -2.567088
Spine -14.071174 15.026244 -3.892752
Head 19.684443 -13.124883 16.966449
LeftShoulder -11.434495 19.573702 10.481284
LeftArm 24.030532 35.308381 -67.741441
LeftForeArm 0.584952 -0.000000 23.292187
LeftHand -24.011327 -0.000000 -8.244564
LeftHandThumb1 -26.253704 0.000000 33.147579
RightShoulder -24.620083 16.710570 -46.842145
RightArm 108.927538 42.242062 87.359463
RightForeArm 45.938330 0.000000 116.489531
RightHand 5.368755 0.000000 19.433510
RightHandThumb1 -24.326973 -0.000000 -32.862282
LeftUpLeg -2.727393 2.161633 7.153269
LeftLeg -1.608104 -0.000000 0.000000
LeftFoot -7.734086 4.435704 -19.105587
LeftToeBase 10.225494 -0.000000 -0.000000
RightUpLeg -3.457683 -11.281306 1.471332
RightLeg 1.540383 -0.000000 -0.000000
RightFoot -5.619868 -3.896971 -14.662165
RightToeBase 0.151491 -0.000000 -0.000000
1372
root -4.899532 33.066259 -3.309264 7.545068 5.759958 -2.589612
Spine -14.057514 14.985410 -3.895260
Head 19.836512 -13.222169 16.989921
LeftShoulder -11.401412 19.550631 10.482559
LeftArm 23.989223 35.243236 -67.758290
LeftForeArm 0.602457 -0.000000 23.280064
LeftHand -24.013015 -0.000000 -8.230894
LeftHandThumb1 -26.253704 0.000000 33.147579
RightShoulder -24.640256 16.495343 -46.717642
RightArm 109.733662 42.108927 87.926077
RightForeArm 48.111120 0.000000 117.996287
RightHand 5.908493 -0.000000 18.794015
RightHandThumb1 -24.326973 -0.000000 -32.862282
LeftUpLeg -2.735304 2.195292 7.183506
LeftLeg -1.626847 -0.000000 0.000000
LeftFoot -7.694281 4.397118 -19.075899
LeftToeBase 10.217898 -0.000000 -0.000000
RightUpLeg -3.463354 -11.288127 1.503363
RightLeg 1.524949 -0.000000 -0.000000
RightFoot -5.598539 -3.873735 -14.612549
RightToeBase 0.149650 -0.000000 -0.000000
